#tb 0: 1/1000
0,          0,          0,        0,    67872, 1d318f05310f6d40646f23c62c7eafe4
0,         33,         33,        0,    67872, 42870bd73e1a0c5d84b986db3d24f0f0
0,         66,         66,        0,    67872, afaac676150286143c6fec7992a81467
0,        100,        100,        0,    67872, 128f84400c272628e802c2369b6bf548
0,        133,        133,        0,    67872, 9adc24d69f12349d8b17c84f5c111767
0,        166,        166,        0,    67872, b33d2f7a1955248652701f2ade8ab55d
0,        200,        200,        0,    67872, b8acc23721097fce6c8835f5fcfaa6ee
0,        233,        233,        0,    67872, b63bf9a08e4dc5879bbd91efaec95960
0,        266,        266,        0,    67872, 96e8fe29935266f6bd486b99f917eabc
0,        300,        300,        0,    67872, 54be14f8dde6857867cd4581f8557044
